<svg id="Capa_1" enable-background="new 0 0 510 510" height="512" viewBox="0 0 510 510" width="512" xmlns="http://www.w3.org/2000/svg"><g><path d="m47 90.5h416v296h-416z" fill="#e6f8fc"/><path d="m255 90.5h208v296h-208z" fill="#cef2fb"/><path d="m32 75.5v326h446v-326zm416 296h-386v-266h386z" fill="#00465f"/><path d="m478 75.5v326h-223v-30h193v-266h-193v-30z" fill="#002c3c"/><path d="m0 371.5h510v63h-510z" fill="#00607f"/><path d="m255 371.5h255v63h-255z" fill="#00465f"/><path d="m261.1 216.61 14.13 39.49c-30.976 12.983-12.851 4.18-83.22 41.4h-49.01c-41.617 0-62.754-50.692-33.24-80.24 16.078-16.059 33.27-13.76 50.24-13.76 0-33.912 24.408-59.083 53.96-63.35 36.699-5.352 72.04 22.322 72.04 63.15h-11.55l-4.48 15.19c-1.404-.419-1.657-.435-8.87-1.88z" fill="#00607f"/><path d="m261.1 216.61 14.13 39.49c-29.894 12.529-16.231 5.98-61.27 29.79v-145.74c36.958-5.389 72.04 22.608 72.04 63.15h-11.55l-4.48 15.19c-1.404-.419-1.657-.435-8.87-1.88z" fill="#00465f"/><path d="m398 282.5c0 30.403-24.621 55-55 55h-120c-25.92 0-47-21.08-47-47 0-25.983 21.009-47 47-47h17c0-37.532 29.67-64 63-64 31.593 0 57.306 23.099 62.16 52.66 19.56 8.64 32.84 28.28 32.84 50.34z" fill="#00607f"/><path d="m398 282.5c0 30.403-24.621 55-55 55h-47.09v-157.59c32.701-3.95 63.785 18.966 69.25 52.25 19.56 8.64 32.84 28.28 32.84 50.34z" fill="#00465f"/></g></svg>