<svg id="Solid_gradient" height="512" viewBox="0 0 512 512" width="512" xmlns="http://www.w3.org/2000/svg" xmlns:xlink="http://www.w3.org/1999/xlink" data-name="Solid gradient"><linearGradient id="linear-gradient" gradientUnits="userSpaceOnUse" x1="112" x2="112" y1="-10.425" y2="546.879"><stop offset="0" stop-color="#ff91d2"/><stop offset=".262" stop-color="#f68bd9"/><stop offset=".688" stop-color="#de79ed"/><stop offset=".999" stop-color="#c86aff"/></linearGradient><linearGradient id="linear-gradient-2" x1="256" x2="256" xlink:href="#linear-gradient" y1="-10.425" y2="546.879"/><linearGradient id="linear-gradient-4" x1="156" x2="156" xlink:href="#linear-gradient" y1="-10.425" y2="546.879"/><linearGradient id="linear-gradient-6" x1="356" x2="356" xlink:href="#linear-gradient" y1="-10.425" y2="546.879"/><linearGradient id="linear-gradient-7" x1="155.056" x2="155.056" xlink:href="#linear-gradient" y1="-10.425" y2="546.879"/><linearGradient id="linear-gradient-8" x1="370.281" x2="370.281" xlink:href="#linear-gradient" y1="-10.425" y2="546.879"/><g><path d="m96 280h32v16h-32z" fill="url(#linear-gradient)"/><path d="m32 390a2 2 0 0 0 2 2h444a2 2 0 0 0 2-2v-46h-448zm200-30h48v16h-48z" fill="url(#linear-gradient-2)"/><path d="m335.8 467.031-6.973-2.324a47.94 47.94 0 0 1 -32.827-45.538v-11.169h-80v11.169a47.94 47.94 0 0 1 -32.821 45.538l-6.974 2.324a11.984 11.984 0 0 0 -8.205 11.384v1.585h176v-1.585a11.984 11.984 0 0 0 -8.2-11.384z" fill="url(#linear-gradient-2)"/><path d="m216 112h-152v216h184v-184a32.036 32.036 0 0 0 -32-32zm-72 192a8 8 0 0 1 -8 8h-48a8 8 0 0 1 -8-8v-32a8 8 0 0 1 8-8h48a8 8 0 0 1 8 8zm88 8h-72v-16h72zm-72-32v-16h40v16zm72 0h-16v-16h16zm0-48a8 8 0 0 1 -8 8h-136a8 8 0 0 1 -8-8v-96a8 8 0 0 1 8-8h136a8 8 0 0 1 8 8z" fill="url(#linear-gradient-4)"/><path d="m96 224h120v-80h-120zm32-64a8 8 0 0 1 11.578-7.155l48 24a8 8 0 0 1 0 14.31l-48 24a8 8 0 0 1 -11.578-7.155z" fill="url(#linear-gradient-4)"/><path d="m296 112a32.036 32.036 0 0 0 -32 32v184h184v-216zm-16 24h96v16h-96zm0 32h24v16h-24zm0 32h24v16h-24zm0 32h24v16h-24zm0 32h24v16h-24zm64 48h-64v-16h64zm74.123-24.278-41.98 23.278a8 8 0 0 1 -10.875-3.118l-19.4-34.983-13.993 7.758a8 8 0 0 1 -11.848-7.657l7.073-86.24a8 8 0 0 1 11.643-6.455l76.886 39.695a8 8 0 0 1 .209 14.1l-13.993 7.758 19.4 34.984a8 8 0 0 1 -3.122 10.88zm13.877-103.722h-64v-16h64zm0-32h-40v-16h40z" fill="url(#linear-gradient-6)"/><path d="m144 172.944v22.112l22.111-11.056z" fill="url(#linear-gradient-7)"/><path d="m387.091 231.749 7.916-4.389-52.946-27.333-4.867 59.386 7.916-4.39a8 8 0 0 1 10.876 3.118l19.4 34.984 27.987-15.517-19.4-34.983a8 8 0 0 1 3.118-10.876z" fill="url(#linear-gradient-8)"/><g fill="url(#linear-gradient-2)"><path d="m478 32h-444a2 2 0 0 0 -2 2v30h448v-30a2 2 0 0 0 -2-2zm-414 24h-16v-16h16zm32 0h-16v-16h16zm32 0h-16v-16h16zm304 0h-16v-16h16zm32 0h-16v-16h16z"/><path d="m32 328h16v-224a8 8 0 0 1 8-8h160a47.994 47.994 0 0 1 40 21.494 47.994 47.994 0 0 1 40-21.494h160a8 8 0 0 1 8 8v224h16v-248h-448z"/></g></g></svg>